<?xml version="1.0" encoding="UTF-8" standalone="no"?>
<!DOCTYPE svg PUBLIC "-//W3C//DTD SVG 1.1//EN" "http://www.w3.org/Graphics/SVG/1.1/DTD/svg11.dtd">
<svg width="100%" height="100%" viewBox="0 0 324 170" version="1.1" xmlns="http://www.w3.org/2000/svg" xmlns:xlink="http://www.w3.org/1999/xlink" xml:space="preserve" xmlns:serif="http://www.serif.com/" style="fill-rule:evenodd;clip-rule:evenodd;stroke-linejoin:round;stroke-miterlimit:2;">
    <g transform="matrix(1,0,0,1,-0.625,0)">
        <g id="Icon">
            <g id="mountain_signal">
                <path id="Shape" d="M171.605,0L153.057,0C149.642,0 146.875,2.377 146.875,5.313L146.875,164.688C146.875,167.623 149.642,170 153.057,170L171.605,170C175.021,170 177.787,167.623 177.787,164.688L177.787,5.313C177.787,2.377 175.021,0 171.605,0ZM25.355,102.5L6.807,102.5C3.392,102.5 0.625,104.658 0.625,107.321L0.625,165.179C0.625,167.842 3.392,170 6.807,170L25.355,170C28.771,170 31.537,167.842 31.537,165.179L31.537,107.321C31.537,104.658 28.771,102.5 25.355,102.5ZM317.855,102.5L299.307,102.5C295.892,102.5 293.125,104.658 293.125,107.321L293.125,165.179C293.125,167.842 295.892,170 299.307,170L317.855,170C321.271,170 324.037,167.842 324.037,165.179L324.037,107.321C324.037,104.658 321.271,102.5 317.855,102.5ZM74.105,67.5L55.557,67.5C52.142,67.5 49.375,69.793 49.375,72.625L49.375,164.875C49.375,167.707 52.142,170 55.557,170L74.105,170C77.521,170 80.287,167.707 80.287,164.875L80.287,72.625C80.287,69.793 77.521,67.5 74.105,67.5ZM269.105,67.5L250.557,67.5C247.142,67.5 244.375,69.793 244.375,72.625L244.375,164.875C244.375,167.707 247.142,170 250.557,170L269.105,170C272.521,170 275.287,167.707 275.287,164.875L275.287,72.625C275.287,69.793 272.521,67.5 269.105,67.5ZM122.855,33.75L104.307,33.75C100.892,33.75 98.125,36.095 98.125,38.99L98.125,164.76C98.125,167.655 100.892,170 104.307,170L122.855,170C126.271,170 129.037,167.655 129.037,164.76L129.037,38.99C129.037,36.095 126.271,33.75 122.855,33.75ZM220.355,33.75L201.807,33.75C198.392,33.75 195.625,36.095 195.625,38.99L195.625,164.76C195.625,167.655 198.392,170 201.807,170L220.355,170C223.771,170 226.537,167.655 226.537,164.76L226.537,38.99C226.537,36.095 223.771,33.75 220.355,33.75Z" style="fill-rule:nonzero;"/>
            </g>
        </g>
    </g>
</svg>
